<svg width="21" height="18" viewBox="0 0 21 18" fill="none" xmlns="http://www.w3.org/2000/svg">
<path d="M0 17.1036C3.3986 12.9807 6.7972 8.85779 10.1958 4.73486C11.2688 4.75522 12.3422 4.77513 13.4152 4.79548C10.7108 8.06798 8.00647 11.3405 5.3021 14.613C6.61137 14.6099 7.92019 14.6068 9.22945 14.6037C9.65245 14.0847 10.0755 13.5657 10.4985 13.0466C11.6095 14.3979 12.7205 15.7492 13.8316 17.1005C9.22105 17.1014 4.61052 17.1023 0 17.1036Z" fill="url(#paint0_linear_79911_1909)"/>
<path d="M20.4993 5.19016C19.0662 3.46011 17.6326 1.73005 16.1994 0C11.4827 0 6.76554 0 2.04883 0C3.44836 1.68094 4.84789 3.36143 6.24741 5.04237C6.83767 4.36761 7.42792 3.69284 8.01817 3.01808C7.91685 2.89684 7.81552 2.77605 7.71376 2.65481C10.1274 2.65481 12.5415 2.65481 14.9552 2.65481C15.6516 3.49993 16.3485 4.34504 17.045 5.1906C15.7826 6.70738 14.5203 8.22372 13.2579 9.74051C12.4893 10.1148 11.7212 10.4892 10.9526 10.8635C11.4787 10.8723 12.0048 10.8812 12.5305 10.89L12.53 10.8905C12.5424 10.8905 12.5552 10.8905 12.5676 10.8905C12.5681 10.8905 12.5681 10.8905 12.5685 10.8905C13.6335 10.8905 14.6986 10.89 15.7636 10.89C17.3428 8.99008 18.921 7.09012 20.4993 5.19016Z" fill="url(#paint1_linear_79911_1909)"/>
<defs>
<linearGradient id="paint0_linear_79911_1909" x1="22.4235" y1="0.2862" x2="8.369" y2="14.6397" gradientUnits="userSpaceOnUse">
<stop offset="1.33195e-07" stop-color="#C07BFC"/>
<stop offset="1" stop-color="#4B1B91"/>
</linearGradient>
<linearGradient id="paint1_linear_79911_1909" x1="18.3822" y1="-4.23239" x2="2.93509" y2="11.5434" gradientUnits="userSpaceOnUse">
<stop offset="1.33195e-07" stop-color="#C07BFC"/>
<stop offset="1" stop-color="#4B1B91"/>
</linearGradient>
</defs>
</svg>
