<svg width="20" height="20" viewBox="0 0 20 20" fill="none" xmlns="http://www.w3.org/2000/svg">
<path d="M9.83153 5.12L15.3415 14.6643M15.053 14.1629L1.46724 17.3186L0.600098 15.81L10.1244 5.62142" stroke="black" stroke-width="1.2" stroke-linecap="round" stroke-linejoin="round"/>
<path d="M4.42281 16.6314L5.17138 17.9271C5.44285 18.3922 5.88795 18.7304 6.40876 18.8673C6.66664 18.9351 6.93535 18.9514 7.19954 18.9153C7.46374 18.8793 7.71824 18.7915 7.94852 18.6571C8.1788 18.5227 8.38036 18.3442 8.54167 18.1319C8.70298 17.9196 8.8209 17.6776 8.88869 17.4197C8.95647 17.1619 8.9728 16.8931 8.93674 16.629C8.90068 16.3648 8.81294 16.1103 8.67852 15.88L8.55852 15.6728M10.2057 2.3914V0.599976M17.0671 9.25283H18.8571M1.55566 9.25283H3.34566M4.08709 3.13426L5.35281 4.4014M15.0571 4.4014L16.3228 3.13426" stroke="black" stroke-width="1.2" stroke-linecap="round" stroke-linejoin="round"/>
</svg>
