<svg width="20" height="20" viewBox="0 0 20 20" fill="none" xmlns="http://www.w3.org/2000/svg">
<path d="M4.1665 7.50002C4.1665 4.75002 4.1665 3.37502 5.02067 2.52085C5.87484 1.66669 7.24984 1.66669 9.99984 1.66669C12.7498 1.66669 14.1248 1.66669 14.979 2.52085C15.8332 3.37502 15.8332 4.75002 15.8332 7.50002V12.5C15.8332 15.25 15.8332 16.625 14.979 17.4792C14.1248 18.3334 12.7498 18.3334 9.99984 18.3334C7.24984 18.3334 5.87484 18.3334 5.02067 17.4792C4.1665 16.625 4.1665 15.25 4.1665 12.5V7.50002Z" stroke="black" stroke-linecap="round"/>
<path d="M13.3332 10.8334V8.75002C13.3332 7.86597 12.982 7.01812 12.3569 6.393C11.7317 5.76788 10.8839 5.41669 9.99984 5.41669C9.11578 5.41669 8.26794 5.76788 7.64281 6.393C7.01769 7.01812 6.6665 7.86597 6.6665 8.75002V10.8334" stroke="black" stroke-linecap="round" stroke-linejoin="round"/>
<path d="M11.25 9.16667V8.75C11.25 8.41848 11.1183 8.10054 10.8839 7.86612C10.6495 7.6317 10.3315 7.5 10 7.5C9.66848 7.5 9.35054 7.6317 9.11612 7.86612C8.8817 8.10054 8.75 8.41848 8.75 8.75V11.6667M11.25 11.25V12.5" stroke="black" stroke-linecap="round" stroke-linejoin="round"/>
<path d="M10 15.8334V15.8417" stroke="black" stroke-width="2" stroke-linecap="round" stroke-linejoin="round"/>
</svg>
