<?xml version="1.0" encoding="UTF-8"?>
<svg version="1.1" xmlns="http://www.w3.org/2000/svg" width="72" height="72">
<path d="M0 0 C-0.2109375 2.38671875 -0.2109375 2.38671875 -1 5 C-3.0390625 6.08203125 -3.0390625 6.08203125 -5.625 6.8125 C-12.42284708 9.21804188 -16.13885189 13.43954274 -19.4375 19.75 C-20.74184196 27.28619802 -21.20404987 34.57123315 -17.19140625 41.32421875 C-13.49221897 46.52733791 -9.09922413 50.10470391 -3 52 C5.37078304 53.24695803 12.04924909 51.83864428 19 47 C23.51761151 42.67880639 25.72545907 37.71811966 28 32 C29.32 32 30.64 32 32 32 C33.40370337 36.21111011 32.05445454 38.39377275 30.3515625 42.3671875 C26.24808164 50.36067334 20.34987775 54.8721519 12 58 C2.92750746 60.13550424 -5.02124248 58.63581281 -13.1875 54.3125 C-20.48660776 48.31101139 -25.79813513 41.61491899 -27 32 C-27.67813898 23.35372795 -25.26459872 15.54167523 -19.80859375 8.8203125 C-15.05110527 4.03199796 -7.02021875 -2.60008102 0 0 Z " fill="#000000" transform="translate(30,10)"/>
<path d="M0 0 C6.18574095 3.47401209 10.10284103 8.69073697 12.28125 15.39453125 C13.30233001 19.70859428 13.27026493 23.07433767 11.625 27.1875 C8.43032619 30.91461944 4.63974982 31.30593676 -0.125 31.67578125 C-1.49992981 31.69021277 -2.87500963 31.69396142 -4.25 31.6875 C-5.27867188 31.71166992 -5.27867188 31.71166992 -6.328125 31.73632812 C-11.04538229 31.74082932 -14.26576422 30.8904205 -18.25 28.375 C-22.66205069 21.90399232 -21.86399943 13.91723629 -21.25 6.375 C-20.48331359 2.88046558 -19.56763646 0.22975986 -16.4375 -1.80078125 C-11.19204346 -3.77719434 -4.98201211 -2.22274386 0 0 Z M-15.25 4.375 C-15.37692296 7.34440703 -15.43521201 10.28018257 -15.4375 13.25 C-15.44974609 14.07886719 -15.46199219 14.90773438 -15.47460938 15.76171875 C-15.47654297 16.55964844 -15.47847656 17.35757812 -15.48046875 18.1796875 C-15.48457764 18.91171387 -15.48868652 19.64374023 -15.49291992 20.39794922 C-15.36086847 22.69521044 -15.36086847 22.69521044 -13.25 25.375 C-11.23874964 25.80599599 -11.23874964 25.80599599 -8.93359375 25.703125 C-7.66418945 25.69539063 -7.66418945 25.69539063 -6.36914062 25.6875 C-5.04172852 25.6565625 -5.04172852 25.6565625 -3.6875 25.625 C-2.79869141 25.61984375 -1.90988281 25.6146875 -0.99414062 25.609375 C3.20727079 25.92760655 3.20727079 25.92760655 6.75 24.375 C7.28048967 18.22131986 6.63412899 14.2568869 2.75 9.375 C-0.46251951 6.12892937 -3.52394502 3.5553227 -8.2578125 3.2421875 C-12.06025465 2.87289875 -12.06025465 2.87289875 -15.25 4.375 Z " fill="#000000" transform="translate(54.25,7.625)"/>
</svg>
