<svg width="20" height="20" viewBox="0 0 20 20" fill="none" xmlns="http://www.w3.org/2000/svg">
<path d="M17.5 16.4584C17.5 14.7167 16.1083 12.235 14.1667 11.6859M12.5 16.4584C12.5 14.2492 10.2617 11.4584 7.5 11.4584C4.73833 11.4584 2.5 14.2492 2.5 16.4584M12.5 8.54169C13.163 8.54169 13.7989 8.2783 14.2678 7.80945C14.7366 7.34061 15 6.70473 15 6.04169C15 5.37865 14.7366 4.74276 14.2678 4.27392C13.7989 3.80508 13.163 3.54169 12.5 3.54169M10 6.04169C10 6.70473 9.73661 7.34061 9.26777 7.80945C8.79893 8.2783 8.16304 8.54169 7.5 8.54169C6.83696 8.54169 6.20107 8.2783 5.73223 7.80945C5.26339 7.34061 5 6.70473 5 6.04169C5 5.37865 5.26339 4.74276 5.73223 4.27392C6.20107 3.80508 6.83696 3.54169 7.5 3.54169C8.16304 3.54169 8.79893 3.80508 9.26777 4.27392C9.73661 4.74276 10 5.37865 10 6.04169Z" stroke="#131313" stroke-linecap="round" stroke-linejoin="round"/>
</svg>
