<svg width="17" height="15" viewBox="0 0 17 15" fill="none" xmlns="http://www.w3.org/2000/svg">
<path d="M12.5 3.33333H8.75V1.5C9 1.41667 9.16667 1.16667 9.16667 0.833333C9.16667 0.333333 8.83333 0 8.33333 0C7.83333 0 7.5 0.333333 7.5 0.833333C7.5 1.16667 7.66667 1.41667 7.91667 1.5V3.33333H4.16667C1.83333 3.33333 0 5.16667 0 7.5V9.16667C0 11.5 1.83333 13.3333 4.16667 13.3333H5V14.1667C5 14.4167 5.16667 14.75 5.41667 14.9167C5.5 15 5.66667 15 5.83333 15C6 15 6.08333 15 6.16667 14.9167L9.33333 13.3333H12.5C14.8333 13.3333 16.6667 11.5 16.6667 9.16667V7.5C16.6667 5.16667 14.8333 3.33333 12.5 3.33333ZM15 9.16667C15 10.5833 13.9167 11.6667 12.5 11.6667H9.16667C9 11.6667 8.91667 11.6667 8.83333 11.75L6.66667 12.8333V12.5C6.66667 12 6.33333 11.6667 5.83333 11.6667H4.16667C2.75 11.6667 1.66667 10.5833 1.66667 9.16667V7.5C1.66667 6.08333 2.75 5 4.16667 5H12.5C13.9167 5 15 6.08333 15 7.5V9.16667Z" fill="black"/>
<path d="M5.83333 9.16667C6.29357 9.16667 6.66667 8.79357 6.66667 8.33333C6.66667 7.8731 6.29357 7.5 5.83333 7.5C5.3731 7.5 5 7.8731 5 8.33333C5 8.79357 5.3731 9.16667 5.83333 9.16667Z" fill="black"/>
<path d="M10.8333 9.16667C11.2936 9.16667 11.6667 8.79357 11.6667 8.33333C11.6667 7.8731 11.2936 7.5 10.8333 7.5C10.3731 7.5 10 7.8731 10 8.33333C10 8.79357 10.3731 9.16667 10.8333 9.16667Z" fill="black"/>
</svg>
