<svg width="40" height="40" viewBox="0 0 40 40" fill="none" xmlns="http://www.w3.org/2000/svg">
<path d="M33.3332 21.6663C33.3332 29.9995 27.5 34.1661 20.5668 36.5827C20.2037 36.7057 19.8093 36.6998 19.4501 36.566C12.5002 34.1661 6.66699 29.9995 6.66699 21.6663V9.99982C6.66699 9.5578 6.84258 9.13388 7.15514 8.82133C7.46769 8.50877 7.89161 8.33318 8.33363 8.33318C11.6669 8.33318 15.8335 6.33322 18.7334 3.79993C19.0865 3.49826 19.5357 3.33252 20.0001 3.33252C20.4645 3.33252 20.9137 3.49826 21.2667 3.79993C24.1834 6.34988 28.3333 8.33318 31.6666 8.33318C32.1086 8.33318 32.5325 8.50877 32.8451 8.82133C33.1576 9.13388 33.3332 9.5578 33.3332 9.99982V21.6663Z" stroke="#4B1B91" stroke-width="3.33328" stroke-linecap="round" stroke-linejoin="round"/>
</svg>
