<svg width="16" height="16" viewBox="0 0 16 16" fill="none" xmlns="http://www.w3.org/2000/svg">
<path d="M9.77833 3.81728L12.6083 0.986452C12.9269 0.673026 13.3565 0.498186 13.8034 0.500014C14.2503 0.501842 14.6784 0.680189 14.9944 0.99621C15.3104 1.31223 15.4888 1.74032 15.4906 2.18724C15.4924 2.63415 15.3176 3.06369 15.0042 3.38228L12.1733 6.21228L13.705 13.8331C13.9008 14.8081 12.01 16.1665 11.5067 14.8748L9.265 9.12145L6.35417 12.0323C6.49583 13.7331 6.52667 14.299 5.33417 15.4906L3.52167 12.469L0.5 10.6565C1.69167 9.46395 2.2575 9.49395 3.95833 9.63645L6.86917 6.72645L1.11583 4.48395C-0.175833 3.98062 1.1825 2.08895 2.1575 2.28562L9.77833 3.81728Z" stroke="black" stroke-linecap="round" stroke-linejoin="round"/>
</svg>
