<svg width="18" height="16" viewBox="0 0 18 16" fill="none" xmlns="http://www.w3.org/2000/svg">
<path d="M17.4519 8.56282L13.0073 13.0074C12.5732 13.4414 11.8701 13.4414 11.4361 13.0074C11.002 12.5734 11.002 11.8702 11.4361 11.4362L13.9865 8.88922H6.66681C6.05221 8.88922 5.55566 8.39268 5.55566 7.77807C5.55566 7.16347 6.05255 6.66693 6.66681 6.66693H13.9865L11.4385 4.11893C11.0044 3.68489 11.0044 2.98174 11.4385 2.5477C11.8722 2.114 12.5753 2.11331 13.0097 2.5477L17.4543 6.99228C17.8859 7.42737 17.8859 8.12878 17.4519 8.56282Z" fill="#4B1B91"/>
<path opacity="0.4" d="M5.55573 13.3338H3.33344C2.71988 13.3338 2.22229 12.8362 2.22229 12.2226V3.33344C2.22229 2.71988 2.71988 2.22229 3.33344 2.22229H5.55573C6.16929 2.22229 6.66688 1.72471 6.66688 1.11115C6.66688 0.497585 6.17033 0 5.55573 0H3.33344C1.49241 0 0 1.49241 0 3.33344V12.2226C0 14.0636 1.49241 15.556 3.33344 15.556H5.55573C6.16929 15.556 6.66688 15.0585 6.66688 14.4449C6.66688 13.8313 6.17033 13.3338 5.55573 13.3338Z" fill="#4B1B91"/>
</svg>
