<svg width="68" height="56" viewBox="0 0 68 56" fill="none" xmlns="http://www.w3.org/2000/svg">
<path d="M0 56.0002C11.1578 42.5014 22.3157 29.0027 33.4735 15.5039C36.9962 15.5705 40.5203 15.6357 44.043 15.7024C35.1644 26.4168 26.2858 37.1312 17.4072 47.8456C21.7056 47.8354 26.0025 47.8253 30.3009 47.8152C31.6897 46.1159 33.0784 44.4166 34.4671 42.7173C38.1148 47.1415 41.7624 51.5658 45.41 55.99C30.2733 55.9929 15.1367 55.9958 0 56.0002Z" fill="url(#paint0_linear_85677_66962)"/>
<path d="M67.3008 16.993C62.5957 11.3286 57.8891 5.66432 53.1839 0C37.6986 0 22.2119 0 6.72656 0C11.3213 5.50352 15.9161 11.0056 20.5108 16.5091C22.4486 14.2999 24.3865 12.0906 26.3243 9.88141C25.9917 9.48448 25.659 9.08899 25.3249 8.69205C33.2491 8.69205 41.1748 8.69205 49.099 8.69205C51.3855 11.459 53.6735 14.226 55.9599 16.9944C51.8155 21.9605 47.6711 26.9251 43.5267 31.8911C41.0034 33.1167 38.4816 34.3423 35.9583 35.5679C37.6855 35.5968 39.4127 35.6258 41.1385 35.6548L41.1371 35.6562C41.1777 35.6562 41.2198 35.6562 41.2605 35.6562C41.262 35.6562 41.262 35.6562 41.2634 35.6562C44.76 35.6562 48.2565 35.6548 51.7531 35.6548C56.9376 29.4342 62.1192 23.2136 67.3008 16.993Z" fill="url(#paint1_linear_85677_66962)"/>
<defs>
<linearGradient id="paint0_linear_85677_66962" x1="73.6178" y1="0.938654" x2="27.6052" y2="48.0593" gradientUnits="userSpaceOnUse">
<stop offset="1.33195e-07" stop-color="#C07BFC"/>
<stop offset="1" stop-color="#4B1B91"/>
</linearGradient>
<linearGradient id="paint1_linear_85677_66962" x1="60.3503" y1="-13.8572" x2="9.77828" y2="37.9327" gradientUnits="userSpaceOnUse">
<stop offset="1.33195e-07" stop-color="#C07BFC"/>
<stop offset="1" stop-color="#4B1B91"/>
</linearGradient>
</defs>
</svg>
