<svg width="86" height="18" viewBox="0 0 86 18" fill="none" xmlns="http://www.w3.org/2000/svg">
<path d="M23.2427 15.5643V1.92212H25.882V15.5643H23.2427ZM25.1833 4.25083V1.92212H32.3828V4.25083H25.1833ZM25.1833 9.97549V7.62731H32.0531V9.97549H25.1833Z" fill="#170D3F"/>
<path d="M35.4675 4.67785C35.0534 4.67785 34.7109 4.53891 34.4393 4.2606C34.1676 3.98273 34.0317 3.63672 34.0317 3.22257C34.0317 2.82169 34.1676 2.47878 34.4393 2.19383C34.7109 1.90932 35.0534 1.76685 35.4675 1.76685C35.8945 1.76685 36.2405 1.90932 36.5056 2.19383C36.7706 2.47878 36.9034 2.82169 36.9034 3.22257C36.9034 3.63672 36.7706 3.98273 36.5056 4.2606C36.2405 4.53891 35.8945 4.67785 35.4675 4.67785ZM34.1866 15.5643V6.19153H36.7481V15.5643H34.1866Z" fill="#170D3F"/>
<path d="M38.9995 15.5644V6.19156H41.5415V15.5644H38.9995ZM45.3065 15.5644V10.1893C45.3065 9.63308 45.1317 9.17999 44.7826 8.83088C44.4335 8.48178 43.9804 8.307 43.4242 8.307C43.0618 8.307 42.7384 8.38443 42.4539 8.53974C42.1694 8.69505 41.9459 8.91495 41.7844 9.19946C41.6225 9.48397 41.5419 9.81405 41.5419 10.1893L40.5521 9.68485C40.5521 8.94725 40.7105 8.3039 41.0273 7.75391C41.3442 7.20393 41.784 6.77385 42.3468 6.46323C42.9096 6.15262 43.5468 5.99731 44.2583 5.99731C44.9436 5.99731 45.5582 6.16899 46.102 6.51146C46.6454 6.85438 47.0724 7.30083 47.383 7.85037C47.6936 8.40036 47.8484 8.99238 47.8484 9.626V15.5644H45.3065Z" fill="#170D3F"/>
<path d="M48.9736 8.42319V6.19138H55.9014V8.42319H48.9736ZM51.1665 15.5642V2.29102H53.7085V15.5646H51.1665V15.5642Z" fill="#170D3F"/>
<path d="M61.5878 15.7586C60.6046 15.7586 59.7312 15.5484 58.9679 15.1281C58.2046 14.7077 57.5998 14.1285 57.1533 13.3914C56.7069 12.6538 56.4839 11.8131 56.4839 10.8684C56.4839 9.93704 56.7003 9.10564 57.1339 8.37468C57.567 7.64417 58.1591 7.06188 58.9095 6.62826C59.6595 6.19508 60.494 5.97827 61.413 5.97827C62.3183 5.97827 63.1174 6.18181 63.8094 6.58932C64.5014 6.99683 65.0448 7.55302 65.4394 8.25831C65.8341 8.96361 66.0315 9.76226 66.0315 10.6547C66.0315 10.8229 66.0217 10.9941 66.0023 11.1689C65.9828 11.3436 65.947 11.541 65.8956 11.7609L58.017 11.7804V9.87863L64.712 9.85916L63.6833 10.6547C63.6572 10.0985 63.5572 9.63306 63.3824 9.25741C63.2076 8.88219 62.9554 8.59459 62.6258 8.39371C62.2957 8.19327 61.8913 8.09283 61.413 8.09283C60.9086 8.09283 60.4683 8.2061 60.0935 8.4322C59.7183 8.65875 59.4303 8.97555 59.2298 9.38307C59.029 9.79058 58.929 10.2729 58.929 10.8286C58.929 11.3981 59.0356 11.8927 59.2493 12.3131C59.4626 12.7339 59.7701 13.0573 60.171 13.2834C60.5719 13.51 61.0378 13.6228 61.5683 13.6228C62.0466 13.6228 62.4802 13.5423 62.8683 13.3803C63.2563 13.2188 63.5926 12.9764 63.8775 12.6525L65.3718 14.1467C64.9187 14.6772 64.3656 15.0781 63.7125 15.3498C63.059 15.6228 62.351 15.7586 61.5878 15.7586Z" fill="#170D3F"/>
<path d="M72.0279 15.7586C71.0704 15.7586 70.2102 15.5449 69.447 15.1183C68.6833 14.6914 68.082 14.1091 67.6421 13.3719C67.2023 12.6343 66.9824 11.8065 66.9824 10.8879C66.9824 9.95651 67.2023 9.12201 67.6421 8.38442C68.082 7.64682 68.6868 7.06188 69.4567 6.62826C70.2262 6.19508 71.0832 5.97827 72.0279 5.97827C72.7655 5.97827 73.4447 6.11411 74.0655 6.38579C74.6862 6.65746 75.223 7.04551 75.6761 7.55036L74.046 9.19989C73.8 8.92821 73.5057 8.72158 73.1628 8.5791C72.8199 8.43707 72.4416 8.36583 72.0275 8.36583C71.5615 8.36583 71.1443 8.47247 70.7757 8.68574C70.4071 8.89945 70.116 9.19015 69.9023 9.55917C69.6886 9.92775 69.5819 10.3645 69.5819 10.8689C69.5819 11.3609 69.6886 11.7972 69.9023 12.179C70.1155 12.5609 70.4067 12.8582 70.7757 13.0715C71.1443 13.2852 71.5615 13.3918 72.0275 13.3918C72.4544 13.3918 72.8389 13.3175 73.1819 13.1688C73.5248 13.0202 73.819 12.8033 74.065 12.5188L75.7145 14.1684C75.2358 14.6861 74.6858 15.0803 74.065 15.352C73.4442 15.6228 72.765 15.7586 72.0279 15.7586Z" fill="#170D3F"/>
<path d="M77.1509 15.5642V1.53394H79.6929V15.5642H77.1509ZM83.4574 15.5642V10.1891C83.4574 9.63288 83.2826 9.17979 82.9335 8.83069C82.5844 8.48158 82.1313 8.3068 81.5751 8.3068C81.2127 8.3068 80.8893 8.38423 80.6048 8.53954C80.3203 8.69485 80.0968 8.91475 79.9353 9.19926C79.7734 9.48377 79.6929 9.81385 79.6929 10.1891L78.7031 9.68465C78.7031 8.94705 78.8584 8.30371 79.169 7.75372C79.4796 7.20373 79.9092 6.77365 80.4597 6.46304C81.0092 6.15242 81.6402 5.99712 82.3517 5.99712C83.0631 5.99712 83.6937 6.15242 84.2437 6.46304C84.7936 6.77365 85.2237 7.20063 85.5343 7.74398C85.8449 8.28733 86.0003 8.91475 86.0003 9.62624V15.5646H83.4574V15.5642Z" fill="#170D3F"/>
<path d="M0 17.1036C3.3986 12.9807 6.7972 8.85779 10.1958 4.73486C11.2688 4.75522 12.3422 4.77513 13.4152 4.79548C10.7108 8.06798 8.00647 11.3405 5.3021 14.613C6.61137 14.6099 7.92019 14.6068 9.22945 14.6037C9.65245 14.0847 10.0755 13.5657 10.4985 13.0466C11.6095 14.3979 12.7205 15.7492 13.8316 17.1005C9.22105 17.1014 4.61052 17.1023 0 17.1036Z" fill="url(#paint0_linear_79911_1900)"/>
<path d="M20.4993 5.19016C19.0662 3.46011 17.6326 1.73005 16.1994 0C11.4827 0 6.76554 0 2.04883 0C3.44836 1.68094 4.84789 3.36143 6.24741 5.04237C6.83767 4.36761 7.42792 3.69284 8.01817 3.01808C7.91685 2.89684 7.81552 2.77605 7.71376 2.65481C10.1274 2.65481 12.5415 2.65481 14.9552 2.65481C15.6516 3.49993 16.3485 4.34504 17.045 5.1906C15.7826 6.70738 14.5203 8.22372 13.2579 9.74051C12.4893 10.1148 11.7212 10.4892 10.9526 10.8635C11.4787 10.8723 12.0048 10.8812 12.5305 10.89L12.53 10.8905C12.5424 10.8905 12.5552 10.8905 12.5676 10.8905C12.5681 10.8905 12.5681 10.8905 12.5685 10.8905C13.6335 10.8905 14.6986 10.89 15.7636 10.89C17.3428 8.99008 18.921 7.09012 20.4993 5.19016Z" fill="url(#paint1_linear_79911_1900)"/>
<defs>
<linearGradient id="paint0_linear_79911_1900" x1="22.4235" y1="0.2862" x2="8.369" y2="14.6397" gradientUnits="userSpaceOnUse">
<stop offset="1.33195e-07" stop-color="#C07BFC"/>
<stop offset="1" stop-color="#4B1B91"/>
</linearGradient>
<linearGradient id="paint1_linear_79911_1900" x1="18.3822" y1="-4.23239" x2="2.93509" y2="11.5434" gradientUnits="userSpaceOnUse">
<stop offset="1.33195e-07" stop-color="#C07BFC"/>
<stop offset="1" stop-color="#4B1B91"/>
</linearGradient>
</defs>
</svg>
