<svg width="17" height="12" viewBox="0 0 17 12" fill="none" xmlns="http://www.w3.org/2000/svg">
<path d="M0.5 8.8125V2.25C0.5 1.78587 0.684374 1.34075 1.01256 1.01256C1.34075 0.684374 1.78587 0.5 2.25 0.5H9.6875C10.1516 0.5 10.5967 0.684374 10.9249 1.01256C11.2531 1.34075 11.4375 1.78587 11.4375 2.25V8.8125C11.4375 9.27663 11.2531 9.72175 10.9249 10.0499C10.5967 10.3781 10.1516 10.5625 9.6875 10.5625H2.25C1.78587 10.5625 1.34075 10.3781 1.01256 10.0499C0.684374 9.72175 0.5 9.27663 0.5 8.8125ZM15.522 1.14838L12.022 4.266C11.9759 4.30696 11.9389 4.35722 11.9136 4.41347C11.8883 4.46971 11.8751 4.53068 11.875 4.59237V6.14812C11.8751 6.20982 11.8883 6.27079 11.9136 6.32703C11.9389 6.38328 11.9759 6.43354 12.022 6.4745L15.522 9.59213C15.5851 9.64812 15.663 9.6847 15.7463 9.69746C15.8297 9.71021 15.915 9.69861 15.9919 9.66403C16.0688 9.62945 16.1341 9.57338 16.1799 9.50257C16.2257 9.43175 16.25 9.34921 16.25 9.26487V1.47562C16.25 1.39129 16.2257 1.30875 16.1799 1.23793C16.1341 1.16712 16.0688 1.11105 15.9919 1.07647C15.915 1.04189 15.8297 1.03029 15.7463 1.04304C15.663 1.0558 15.5851 1.09238 15.522 1.14838Z" stroke="black" stroke-linecap="round" stroke-linejoin="round"/>
</svg>
