<svg width="14" height="18" viewBox="0 0 14 18" fill="none" xmlns="http://www.w3.org/2000/svg">
<path d="M11.6667 5.83333H10.8333V4.16667C10.8333 1.86667 8.96667 0 6.66667 0C4.36667 0 2.5 1.86667 2.5 4.16667V5.83333H1.66667C0.75 5.83333 0 6.58333 0 7.5V15.8333C0 16.75 0.75 17.5 1.66667 17.5H11.6667C12.5833 17.5 13.3333 16.75 13.3333 15.8333V7.5C13.3333 6.58333 12.5833 5.83333 11.6667 5.83333ZM4.16667 4.16667C4.16667 2.78333 5.28333 1.66667 6.66667 1.66667C8.05 1.66667 9.16667 2.78333 9.16667 4.16667V5.83333H4.16667V4.16667ZM11.6667 15.8333H1.66667V7.5H11.6667V15.8333ZM6.66667 13.3333C7.58333 13.3333 8.33333 12.5833 8.33333 11.6667C8.33333 10.75 7.58333 10 6.66667 10C5.75 10 5 10.75 5 11.6667C5 12.5833 5.75 13.3333 6.66667 13.3333Z" fill="#4B1B91"/>
</svg>
