<svg width="20" height="20" viewBox="0 0 20 20" fill="none" xmlns="http://www.w3.org/2000/svg">
<path opacity="0.3" d="M14.5667 13.6167C13.575 13.1083 11.975 12.5 10 12.5C8.025 12.5 6.425 13.1083 5.43333 13.6167C5.16667 13.75 5 14.0333 5 14.35V15H15V14.35C15 14.0333 14.8333 13.75 14.5667 13.6167Z" fill="#4B1B91"/>
<path opacity="0.3" d="M9.99967 8.33333C10.9201 8.33333 11.6663 7.58714 11.6663 6.66667C11.6663 5.74619 10.9201 5 9.99967 5C9.0792 5 8.33301 5.74619 8.33301 6.66667C8.33301 7.58714 9.0792 8.33333 9.99967 8.33333Z" fill="#4B1B91"/>
<path d="M9.99935 10.0002C11.841 10.0002 13.3327 8.5085 13.3327 6.66683C13.3327 4.82516 11.841 3.3335 9.99935 3.3335C8.15768 3.3335 6.66602 4.82516 6.66602 6.66683C6.66602 8.5085 8.15768 10.0002 9.99935 10.0002ZM9.99935 5.00016C10.916 5.00016 11.666 5.75016 11.666 6.66683C11.666 7.5835 10.916 8.3335 9.99935 8.3335C9.08268 8.3335 8.33268 7.5835 8.33268 6.66683C8.33268 5.75016 9.08268 5.00016 9.99935 5.00016Z" fill="#4B1B91"/>
<path d="M15.3247 12.1335C13.9247 11.4168 12.108 10.8335 9.99967 10.8335C7.89134 10.8335 6.07467 11.4168 4.67467 12.1335C3.84134 12.5585 3.33301 13.4168 3.33301 14.3502V16.6668H16.6663V14.3502C16.6663 13.4168 16.158 12.5585 15.3247 12.1335ZM14.9997 15.0002H4.99967V14.3502C4.99967 14.0335 5.16634 13.7502 5.43301 13.6168C6.42467 13.1085 8.02467 12.5002 9.99967 12.5002C11.9747 12.5002 13.5747 13.1085 14.5663 13.6168C14.833 13.7502 14.9997 14.0335 14.9997 14.3502V15.0002Z" fill="#4B1B91"/>
</svg>
