<svg width="20" height="20" viewBox="0 0 20 20" fill="none" xmlns="http://www.w3.org/2000/svg">
<path fill-rule="evenodd" clip-rule="evenodd" d="M10.469 2.66666H9.53067L8.99317 4.81499L8.454 4.98166C8.13982 5.07847 7.83543 5.20458 7.54484 5.35832L7.04567 5.62249L5.14567 4.48249L4.48234 5.14666L5.62234 7.04666L5.35817 7.54499C5.20414 7.83555 5.07775 8.13995 4.98067 8.45416L4.81484 8.99332L2.6665 9.53082V10.4692L4.81484 11.0067L4.9815 11.5458C5.07761 11.8614 5.20317 12.1644 5.35817 12.455L5.62234 12.9542L4.48234 14.8542L5.1465 15.5175L7.0465 14.3775L7.54484 14.6417C7.83539 14.7961 8.13845 14.9219 8.454 15.0192L8.99317 15.185L9.53067 17.3333H10.469L11.0065 15.185L11.5457 15.0183C11.8598 14.9215 12.1642 14.7954 12.4548 14.6417L12.954 14.3775L14.854 15.5175L15.5173 14.8533L14.3773 12.9533L14.6415 12.455C14.7959 12.1644 14.9218 11.8614 15.019 11.5458L15.1848 11.0067L17.3332 10.4692V9.53082L15.1848 8.99332L15.0182 8.45416C14.9214 8.13998 14.7952 7.83558 14.6415 7.54499L14.3773 7.04582L15.5173 5.14582L14.8532 4.48249L12.9532 5.62249L12.4548 5.35832C12.1643 5.20429 11.8599 5.0779 11.5457 4.98082L11.0065 4.81499L10.469 2.66666ZM12.9232 4.47499L14.4507 3.55832C14.6099 3.46279 14.7966 3.42321 14.9809 3.44585C15.1653 3.4685 15.3368 3.55208 15.4682 3.68332L16.3165 4.53166C16.4477 4.66307 16.5313 4.83457 16.554 5.01891C16.5766 5.20325 16.537 5.38988 16.4415 5.54916L15.5248 7.07666C15.7082 7.4211 15.8582 7.78221 15.9748 8.15999L17.7023 8.59249C17.8825 8.63763 18.0425 8.7417 18.1568 8.88815C18.2711 9.0346 18.3332 9.21505 18.3332 9.40082V10.5992C18.3332 10.7849 18.2711 10.9654 18.1568 11.1118C18.0425 11.2583 17.8825 11.3623 17.7023 11.4075L15.9748 11.84C15.8582 12.2178 15.7082 12.5789 15.5248 12.9233L16.4415 14.4508C16.537 14.6101 16.5766 14.7967 16.554 14.9811C16.5313 15.1654 16.4477 15.3369 16.3165 15.4683L15.4682 16.3167C15.3368 16.4479 15.1653 16.5315 14.9809 16.5541C14.7966 16.5768 14.6099 16.5372 14.4507 16.4417L12.9232 15.525C12.5787 15.7083 12.2176 15.8583 11.8398 15.975L11.4073 17.7025C11.3622 17.8827 11.2581 18.0426 11.1117 18.1569C10.9652 18.2712 10.7848 18.3333 10.599 18.3333H9.40067C9.2149 18.3333 9.03445 18.2712 8.888 18.1569C8.74154 18.0426 8.63748 17.8827 8.59234 17.7025L8.15984 15.975C7.78542 15.8593 7.42271 15.7086 7.0765 15.525L5.549 16.4417C5.38973 16.5372 5.2031 16.5768 5.01876 16.5541C4.83442 16.5315 4.66292 16.4479 4.5315 16.3167L3.68317 15.4683C3.55193 15.3369 3.46835 15.1654 3.4457 14.9811C3.42305 14.7967 3.46264 14.6101 3.55817 14.4508L4.47484 12.9233C4.2912 12.5771 4.14054 12.2144 4.02484 11.84L2.29734 11.4075C2.11727 11.3624 1.95742 11.2584 1.84314 11.1122C1.72886 10.9659 1.66669 10.7856 1.6665 10.6V9.40165C1.66651 9.21588 1.72859 9.03544 1.84288 8.88898C1.95718 8.74253 2.11713 8.63847 2.29734 8.59332L4.02484 8.16082C4.1415 7.78304 4.2915 7.42193 4.47484 7.07749L3.55817 5.54999C3.46264 5.39071 3.42305 5.20409 3.4457 5.01974C3.46835 4.8354 3.55193 4.66391 3.68317 4.53249L4.5315 3.68332C4.66292 3.55208 4.83442 3.4685 5.01876 3.44585C5.2031 3.42321 5.38973 3.46279 5.549 3.55832L7.0765 4.47499C7.42095 4.29166 7.78206 4.14166 8.15984 4.02499L8.59234 2.29749C8.63744 2.11742 8.74138 1.95757 8.88767 1.84329C9.03395 1.72901 9.2142 1.66685 9.39984 1.66666H10.5982C10.7839 1.66666 10.9644 1.72874 11.1108 1.84304C11.2573 1.95733 11.3614 2.11728 11.4065 2.29749L11.839 4.02499C12.2168 4.14166 12.5779 4.29166 12.9223 4.47499H12.9232ZM9.99984 12.3333C10.6187 12.3333 11.2122 12.0875 11.6498 11.6499C12.0873 11.2123 12.3332 10.6188 12.3332 9.99999C12.3332 9.38115 12.0873 8.78766 11.6498 8.35007C11.2122 7.91249 10.6187 7.66666 9.99984 7.66666C9.381 7.66666 8.7875 7.91249 8.34992 8.35007C7.91234 8.78766 7.6665 9.38115 7.6665 9.99999C7.6665 10.6188 7.91234 11.2123 8.34992 11.6499C8.7875 12.0875 9.381 12.3333 9.99984 12.3333ZM9.99984 13.3333C9.11578 13.3333 8.26793 12.9821 7.64281 12.357C7.01769 11.7319 6.6665 10.884 6.6665 9.99999C6.6665 9.11593 7.01769 8.26809 7.64281 7.64297C8.26793 7.01785 9.11578 6.66666 9.99984 6.66666C10.8839 6.66666 11.7317 7.01785 12.3569 7.64297C12.982 8.26809 13.3332 9.11593 13.3332 9.99999C13.3332 10.884 12.982 11.7319 12.3569 12.357C11.7317 12.9821 10.8839 13.3333 9.99984 13.3333Z" fill="black"/>
</svg>
