<svg width="16" height="16" viewBox="0 0 16 16" fill="none" xmlns="http://www.w3.org/2000/svg">
<path d="M11.5079 9.23126C11.4394 9.29146 11.3884 9.36909 11.3605 9.45591C11.3325 9.54274 11.3286 9.63551 11.3492 9.72438L12.1942 13.3831C12.2165 13.4787 12.2102 13.5787 12.1761 13.6707C12.142 13.7627 12.0815 13.8427 12.0023 13.9006C11.9231 13.9585 11.8286 13.9918 11.7305 13.9964C11.6325 14.0009 11.5353 13.9766 11.451 13.9263L8.25728 11.9888C8.17968 11.9416 8.09061 11.9166 7.99978 11.9166C7.90896 11.9166 7.81989 11.9416 7.74228 11.9888L4.54853 13.9263C4.46427 13.9766 4.36706 14.0009 4.26903 13.9964C4.17101 13.9918 4.07649 13.9585 3.99726 13.9006C3.91803 13.8427 3.85759 13.7627 3.82348 13.6707C3.78936 13.5787 3.78308 13.4787 3.80541 13.3831L4.65041 9.72438C4.67095 9.63551 4.66704 9.54274 4.63908 9.45591C4.61113 9.36909 4.56019 9.29146 4.49166 9.23126L1.67228 6.77188C1.59691 6.70782 1.54223 6.62284 1.51517 6.52769C1.48811 6.43254 1.48988 6.3315 1.52025 6.23736C1.55063 6.14322 1.60825 6.0602 1.68582 5.99882C1.76339 5.93743 1.85743 5.90043 1.95603 5.89251L5.67228 5.57126C5.76295 5.56318 5.84969 5.53051 5.92316 5.47676C5.99662 5.42301 6.05402 5.35023 6.08916 5.26626L7.54103 1.80626C7.57981 1.7168 7.6439 1.64064 7.72541 1.58714C7.80691 1.53363 7.90229 1.50513 7.99978 1.50513C8.09728 1.50513 8.19266 1.53363 8.27416 1.58714C8.35567 1.64064 8.41976 1.7168 8.45853 1.80626L9.91041 5.26626C9.94555 5.35023 10.0029 5.42301 10.0764 5.47676C10.1499 5.53051 10.2366 5.56318 10.3273 5.57126L14.0435 5.89251C14.1421 5.90043 14.2362 5.93743 14.3137 5.99882C14.3913 6.0602 14.4489 6.14322 14.4793 6.23736C14.5097 6.3315 14.5115 6.43254 14.4844 6.52769C14.4573 6.62284 14.4027 6.70782 14.3273 6.77188L11.5079 9.23126Z" fill="black" fill-opacity="0.04"/>
<path d="M14.9502 6.08062C14.8897 5.89399 14.7755 5.72929 14.6221 5.60704C14.4686 5.4848 14.2825 5.4104 14.0871 5.39312L10.3752 5.07312L8.92021 1.61312C8.84446 1.43157 8.71668 1.27649 8.55297 1.16741C8.38926 1.05833 8.19693 1.00012 8.00021 1.00012C7.80349 1.00012 7.61116 1.05833 7.44745 1.16741C7.28374 1.27649 7.15596 1.43157 7.08021 1.61312L5.62958 5.07312L1.91333 5.395C1.71711 5.41149 1.53011 5.48554 1.37581 5.60788C1.2215 5.73022 1.10675 5.89539 1.04594 6.08269C0.985134 6.26999 0.980978 6.47107 1.03399 6.66071C1.08701 6.85036 1.19484 7.02014 1.34396 7.14875L4.16333 9.6125L3.31833 13.2712C3.27365 13.4627 3.2864 13.6631 3.35499 13.8474C3.42358 14.0316 3.54496 14.1916 3.70396 14.3072C3.86296 14.4229 4.05252 14.4891 4.24894 14.4976C4.44537 14.5061 4.63994 14.4565 4.80833 14.355L7.99583 12.4175L11.1902 14.355C11.3586 14.4565 11.5532 14.5061 11.7496 14.4976C11.946 14.4891 12.1356 14.4229 12.2946 14.3072C12.4536 14.1916 12.575 14.0316 12.6436 13.8474C12.7121 13.6631 12.7249 13.4627 12.6802 13.2712L11.8358 9.60875L14.6546 7.14875C14.8037 7.01969 14.9113 6.84944 14.9639 6.65938C15.0165 6.46933 15.0117 6.26797 14.9502 6.08062ZM13.999 6.39312L11.1802 8.85312C11.043 8.97246 10.941 9.12694 10.885 9.29994C10.8291 9.47295 10.8214 9.65793 10.8627 9.835L11.7096 13.5L8.51771 11.5625C8.36198 11.4677 8.18317 11.4175 8.00083 11.4175C7.8185 11.4175 7.63969 11.4677 7.48396 11.5625L4.29646 13.5L5.13771 9.8375C5.17905 9.66043 5.17134 9.47545 5.11539 9.30244C5.05945 9.12944 4.9574 8.97496 4.82021 8.85562L2.00021 6.39687C1.99998 6.395 1.99998 6.39312 2.00021 6.39125L5.71521 6.07C5.89659 6.05401 6.07015 5.98881 6.21719 5.88142C6.36423 5.77403 6.47916 5.62853 6.54958 5.46062L8.00021 2.005L9.45021 5.46062C9.52063 5.62853 9.63556 5.77403 9.7826 5.88142C9.92964 5.98881 10.1032 6.05401 10.2846 6.07L14.0002 6.39125C14.0002 6.39125 14.0002 6.395 14.0002 6.39562L13.999 6.39312Z" fill="black"/>
</svg>
