<svg width="16" height="16" viewBox="0 0 16 16" fill="none" xmlns="http://www.w3.org/2000/svg">
<path d="M8 12.375C9.16032 12.375 10.2731 11.9141 11.0936 11.0936C11.9141 10.2731 12.375 9.16032 12.375 8C12.375 6.83968 11.9141 5.72688 11.0936 4.90641C10.2731 4.08594 9.16032 3.625 8 3.625C6.83968 3.625 5.72688 4.08594 4.90641 4.90641C4.08594 5.72688 3.625 6.83968 3.625 8C3.625 9.16032 4.08594 10.2731 4.90641 11.0936C5.72688 11.9141 6.83968 12.375 8 12.375Z" stroke="black" stroke-linecap="round" stroke-linejoin="round"/>
<path d="M8 9.25C8.33152 9.25 8.64946 9.1183 8.88388 8.88388C9.1183 8.64946 9.25 8.33152 9.25 8C9.25 7.66848 9.1183 7.35054 8.88388 7.11612C8.64946 6.8817 8.33152 6.75 8 6.75C7.66848 6.75 7.35054 6.8817 7.11612 7.11612C6.8817 7.35054 6.75 7.66848 6.75 8C6.75 8.33152 6.8817 8.64946 7.11612 8.88388C7.35054 9.1183 7.66848 9.25 8 9.25Z" stroke="black" stroke-linecap="round" stroke-linejoin="round"/>
<path d="M15.5 8C15.5 8.98491 15.306 9.96018 14.9291 10.8701C14.5522 11.7801 13.9997 12.6069 13.3033 13.3033C12.6069 13.9997 11.7801 14.5522 10.8701 14.9291C9.96018 15.306 8.98491 15.5 8 15.5C7.01509 15.5 6.03982 15.306 5.12987 14.9291C4.21993 14.5522 3.39314 13.9997 2.6967 13.3033C2.00026 12.6069 1.44781 11.7801 1.0709 10.8701C0.693993 9.96018 0.5 8.98491 0.5 8C0.5 6.01088 1.29018 4.10322 2.6967 2.6967C4.10322 1.29018 6.01088 0.5 8 0.5C9.98912 0.5 11.8968 1.29018 13.3033 2.6967C14.7098 4.10322 15.5 6.01088 15.5 8Z" stroke="black" stroke-linecap="round" stroke-linejoin="round"/>
</svg>
