<?xml version="1.0" encoding="UTF-8"?>
<svg version="1.1" xmlns="http://www.w3.org/2000/svg" width="72" height="72">
<path d="M0 0 C2.96358968 3.05075408 5.00750293 5.7952597 5.22265625 10.17578125 C4.85638771 14.91940548 3.70261449 17.88508663 0.125 21.1875 C-8.50795578 26.43463534 -17.57430978 27.6369801 -27.55078125 25.65625 C-33.30542638 23.87666226 -37.29706772 21.50180067 -40.75 16.4375 C-42.17867873 12.31020588 -42.1164937 9.3516768 -40.875 5.1875 C-37.82760982 -0.17590671 -32.7299887 -2.58407593 -27.01171875 -4.40625 C-17.51828252 -6.21121777 -8.17916607 -5.15643079 0 0 Z M-34 5.4375 C-36.15558715 8.11885095 -36.15558715 8.11885095 -36.1875 11.6875 C-34.35456919 16.5753155 -31.5066617 18.07899115 -26.875 20.1875 C-24.37082411 21.08878638 -24.37082411 21.08878638 -21.875 21.1875 C-20.8025 21.27 -19.73 21.3525 -18.625 21.4375 C-12.51534777 21.03018985 -7.7322819 19.52474297 -2.75 15.9375 C-0.59441285 13.25614905 -0.59441285 13.25614905 -0.5625 9.6875 C-2.39543081 4.7996845 -5.2433383 3.29600885 -9.875 1.1875 C-12.37917589 0.28621362 -12.37917589 0.28621362 -14.875 0.1875 C-15.9475 0.105 -17.02 0.0225 -18.125 -0.0625 C-24.23465223 0.34481015 -29.0177181 1.85025703 -34 5.4375 Z " fill="#000000" transform="translate(54.875,41.8125)"/>
<path d="M0 0 C4.50503171 3.98119082 6.42661774 7.32055221 7.1875 13.3125 C6.87325965 18.53294444 5.05177386 23.14242309 1.21484375 26.765625 C-3.57936369 29.98443094 -8.71036973 30.24864411 -14.3125 29.375 C-18.41547649 28.0567433 -21.35906871 25.76973156 -23.75 22.1875 C-25.83140803 17.97963181 -26.10972985 13.97127416 -25.3125 9.375 C-23.45243946 4.05606283 -20.19557656 1.07627639 -15.3125 -1.625 C-9.96203998 -3.40848667 -5.00258095 -2.45409632 0 0 Z M-18.3125 7.375 C-19.99850223 10.28718567 -20.32017408 12.00664419 -20.25 15.375 C-19.0717611 19.14536448 -17.28804581 20.83489992 -14.3125 23.375 C-11.44641871 24.80804064 -9.49949217 24.68144155 -6.3125 24.375 C-2.92944529 22.6184139 -0.85771803 21.27579501 1.125 18 C1.83232843 14.69913398 1.63392409 12.61988261 0.6875 9.375 C-1.77883183 5.77199304 -1.77883183 5.77199304 -5.3125 3.375 C-11.10980856 2.89981077 -14.1675575 2.86432728 -18.3125 7.375 Z " fill="#000000" transform="translate(45.3125,5.625)"/>
</svg>
